# Blender v2.76 (sub 0) OBJ File: ''
# www.blender.org
mtllib mesa.mtl
o woodred_woodred.jpg_woodred_woodred.jpg_woodred_woodred.j_woodr
v -1.099230 -0.002562 0.633599
v -1.242252 -0.002562 0.633599
v -1.242252 -0.002562 0.490577
v -1.099230 -0.002562 0.490577
v -1.242252 -0.002562 -0.625919
v -1.099230 -0.002562 -0.625919
v -1.099230 -0.002562 -0.482898
v -1.242252 -0.002562 -0.482898
v 1.117608 -0.002562 -0.625919
v 1.260630 -0.002562 -0.625919
v 1.260630 -0.002562 -0.482897
v 1.117608 -0.002562 -0.482897
v 1.260630 -0.002562 0.633599
v 1.117608 -0.002562 0.633599
v 1.117608 -0.002562 0.490577
v 1.260630 -0.002562 0.490577
v 1.359593 1.338267 0.722771
v 1.359593 1.338267 -0.715091
v 1.359593 1.383151 -0.715090
v 1.359593 1.383151 0.722770
v -1.341215 1.383152 -0.715091
v -1.341215 1.338267 -0.715091
v -1.341215 1.383152 0.722770
v -1.341216 1.338267 0.722769
v -1.099230 1.181830 0.633599
v -1.242252 1.181830 0.633599
v -1.242252 1.181830 0.490577
v -1.099230 1.181830 0.490577
v -1.099230 1.181830 -0.482898
v -1.242252 1.181830 -0.482898
v -1.242252 1.181830 -0.625920
v -1.099230 1.181830 -0.625919
v 1.260630 1.181830 -0.625919
v 1.260630 1.181830 -0.482898
v 1.117608 1.181830 -0.625919
v 1.117608 1.181830 -0.482898
v 1.260630 1.181830 0.633599
v 1.260630 1.181830 0.490577
v 1.117608 1.181830 0.490577
v 1.117608 1.181830 0.633599
vt 0.401222 0.364318
vt 0.348292 0.364318
vt 0.348292 0.436390
vt 0.401222 0.436390
vt 0.404932 0.436140
vt 0.457862 0.436140
vt 0.457862 0.364068
vt 0.404932 0.364068
vt 0.287892 0.437051
vt 0.340822 0.437051
vt 0.340822 0.364980
vt 0.287892 0.364980
vt 0.280770 0.362873
vt 0.227840 0.362873
vt 0.227840 0.434944
vt 0.280770 0.434944
vt 0.465126 0.385145
vt 0.997254 0.385145
vt 0.997254 0.407763
vt 0.465126 0.407763
vt 0.000076 0.825168
vt 0.999599 0.825168
vt 0.999599 0.802549
vt 0.000076 0.802550
vt 0.463835 0.437428
vt 0.995962 0.437428
vt 0.995962 0.414810
vt 0.463835 0.414810
vt 0.999972 0.850060
vt 0.000449 0.850060
vt 0.000449 0.827442
vt 0.999972 0.827442
vt 0.999972 0.234373
vt 0.000449 0.234373
vt 0.000449 0.958938
vt 0.999972 0.958938
vt 0.355441 0.548645
vt 0.803069 0.548645
vt 0.803069 0.619219
vt 0.355441 0.619219
vt 0.355441 0.697923
vt 0.803069 0.697923
vt 0.803069 0.627349
vt 0.355441 0.627349
vt 0.492594 0.325047
vt 0.940222 0.325047
vt 0.940222 0.254474
vt 0.492594 0.254474
vt 0.492594 0.384291
vt 0.940222 0.384291
vt 0.940222 0.313718
vt 0.492594 0.313718
vn 0.000000 -1.000000 0.000000
vn 1.000000 -0.000000 0.000000
vn 0.000000 0.000000 -1.000000
vn -1.000000 0.000000 -0.000000
vn -0.000000 0.000000 1.000000
vn 0.000000 1.000000 0.000000
usemtl woodred_woodred.j_woodred.jpg
s 1
f 1/1/1 2/2/1 3/3/1 4/4/1
f 5/5/1 6/6/1 7/7/1 8/8/1
f 9/9/1 10/10/1 11/11/1 12/12/1
f 13/13/1 14/14/1 15/15/1 16/16/1
f 17/17/2 18/18/2 19/19/2 20/20/2
f 21/21/3 19/22/3 18/23/3 22/24/3
f 23/25/4 21/26/4 22/27/4 24/28/4
f 20/29/5 23/30/5 24/31/5 17/32/5
f 17/33/1 24/34/1 22/35/1 18/36/1
f 20/33/6 19/36/6 21/35/6 23/34/6
f 1/37/5 25/38/5 26/39/5 2/40/5
f 2/41/4 26/42/4 27/43/4 3/44/4
f 3/40/3 27/39/3 28/38/3 4/37/3
f 25/42/2 1/41/2 4/44/2 28/43/2
f 7/37/5 29/38/5 30/39/5 8/40/5
f 8/45/4 30/46/4 31/47/4 5/48/4
f 5/40/3 31/39/3 32/38/3 6/37/3
f 6/48/2 32/47/2 29/46/2 7/45/2
f 10/48/2 33/47/2 34/46/2 11/45/2
f 9/49/3 35/50/3 33/51/3 10/52/3
f 12/45/4 36/46/4 35/47/4 9/48/4
f 11/52/5 34/51/5 36/50/5 12/49/5
f 37/42/2 13/41/2 16/44/2 38/43/2
f 15/49/3 39/50/3 38/51/3 16/52/3
f 14/41/4 40/42/4 39/43/4 15/44/4
f 13/52/5 37/51/5 40/50/5 14/49/5
o alumain_alumain_alumain.001
v 1.260629 1.248879 0.633599
v -1.242252 1.248879 0.633598
v -1.242252 1.248879 -0.625920
v 1.260630 1.248879 -0.625919
v 1.260629 1.338267 0.633599
v -1.242253 1.338267 0.633598
v -1.242252 1.338267 -0.625920
v 1.260629 1.338267 -0.625919
v -1.099230 1.187075 0.633599
v -1.099230 1.248879 0.633599
v -1.242252 1.187075 0.633599
v -1.242252 1.248879 0.490577
v -1.242252 1.187075 0.490577
v -1.099230 1.248879 0.490577
v -1.099230 1.187075 0.490577
v -1.099230 1.187075 -0.482898
v -1.099230 1.248879 -0.482898
v -1.242252 1.248879 -0.482898
v -1.242252 1.187075 -0.482898
v -1.242252 1.187075 -0.625920
v -1.099230 1.248879 -0.625919
v -1.099230 1.187075 -0.625919
v 1.260630 1.187075 -0.625919
v 1.260630 1.248879 -0.482898
v 1.260630 1.187075 -0.482898
v 1.117608 1.187075 -0.625919
v 1.117608 1.248879 -0.625919
v 1.117608 1.187075 -0.482898
v 1.117608 1.248879 -0.482898
v 1.260629 1.187075 0.633599
v 1.260630 1.187075 0.490577
v 1.260630 1.248879 0.490577
v 1.117608 1.187075 0.490577
v 1.117608 1.248879 0.490577
v 1.117608 1.187075 0.633599
v 1.117608 1.248879 0.633599
v 1.125506 1.187075 0.625701
v 1.252732 1.187075 0.625701
v 1.125506 1.187075 0.498475
v 1.252732 1.187075 0.498475
v 1.125506 1.187075 -0.490795
v 1.252732 1.187075 -0.490795
v 1.125506 1.187075 -0.618022
v 1.252732 1.187075 -0.618022
v -1.107128 1.187075 -0.490795
v -1.107128 1.187075 -0.618022
v -1.234354 1.187075 -0.618022
v -1.234354 1.187075 -0.490795
v -1.107128 1.187075 0.625701
v -1.107128 1.187075 0.498475
v -1.234354 1.187075 0.498475
v -1.234354 1.187075 0.625701
v 1.117608 1.181830 0.633599
v 1.260630 1.181830 0.633599
v 1.252732 1.181829 0.625701
v 1.125506 1.181830 0.625701
v 1.117608 1.181830 0.490577
v 1.125506 1.181830 0.498475
v 1.260630 1.181830 0.490577
v 1.252732 1.181829 0.498475
v 1.117608 1.181830 -0.482898
v 1.260630 1.181830 -0.482898
v 1.252732 1.181830 -0.490795
v 1.125506 1.181830 -0.490795
v 1.117608 1.181830 -0.625919
v 1.125506 1.181830 -0.618022
v 1.260630 1.181830 -0.625919
v 1.252732 1.181830 -0.618022
v -1.099230 1.181830 -0.482898
v -1.099230 1.181830 -0.625919
v -1.107128 1.181830 -0.618022
v -1.107128 1.181830 -0.490795
v -1.242252 1.181830 -0.625920
v -1.234354 1.181830 -0.618022
v -1.242252 1.181830 -0.482898
v -1.234354 1.181830 -0.490795
v -1.099230 1.181830 0.633599
v -1.099230 1.181830 0.490577
v -1.107128 1.181830 0.498475
v -1.107128 1.181830 0.625701
v -1.242252 1.181830 0.490577
v -1.234354 1.181830 0.498475
v -1.242252 1.181830 0.633599
v -1.234354 1.181830 0.625701
vt 0.000000 1.000000
vt 0.000000 0.000000
vt 1.000000 0.000000
vt 1.000000 1.000000
vn -0.223100 -0.293600 0.929500
vn -0.843300 -0.450200 -0.293500
vn 0.288800 -0.437000 -0.851800
vn 0.299900 0.226600 -0.926700
vn -0.000000 -0.000000 1.000000
vn -1.000000 -0.000000 -0.000000
vn 0.000000 -0.000000 -1.000000
vn 1.000000 0.000000 0.000000
vn 0.000000 -1.000000 0.000000
vn 0.000000 1.000000 -0.000000
usemtl alumain.001
s 1
f 41/53/7 42/54/8 43/55/9 44/56/10
f 41/53/7 45/54/11 46/55/11 42/56/8
f 42/53/8 46/54/12 47/55/12 43/56/9
f 43/53/9 47/54/13 48/55/13 44/56/10
f 45/53/14 41/54/7 44/55/10 48/56/14
f 49/53/11 50/54/11 42/55/11 51/56/11
f 51/53/12 42/54/12 52/55/12 53/56/12
f 53/53/13 52/54/13 54/55/13 55/56/13
f 50/53/14 49/54/14 55/55/14 54/56/14
f 56/53/11 57/54/11 58/55/11 59/56/11
f 59/53/12 58/54/12 43/55/12 60/56/12
f 60/53/13 43/54/13 61/55/13 62/56/13
f 62/53/14 61/54/14 57/55/14 56/56/14
f 63/53/14 44/54/14 64/55/14 65/56/14
f 66/53/13 67/54/13 44/55/13 63/56/13
f 68/53/12 69/54/12 67/55/12 66/56/12
f 65/53/11 64/54/11 69/55/11 68/56/11
f 41/53/14 70/54/14 71/55/14 72/56/14
f 73/53/13 74/54/13 72/55/13 71/56/13
f 75/53/12 76/54/12 74/55/12 73/56/12
f 70/53/11 41/54/11 76/55/11 75/56/11
f 70/53/15 75/54/15 77/55/15 78/56/15
f 75/53/15 73/54/15 79/55/15 77/56/15
f 73/53/15 71/54/15 80/55/15 79/56/15
f 71/53/15 70/54/15 78/55/15 80/56/15
f 65/53/15 68/54/15 81/55/15 82/56/15
f 68/53/15 66/54/15 83/55/15 81/56/15
f 66/53/15 63/54/15 84/55/15 83/56/15
f 63/53/15 65/54/15 82/55/15 84/56/15
f 62/53/15 56/54/15 85/55/15 86/56/15
f 60/53/15 62/54/15 86/55/15 87/56/15
f 59/53/15 60/54/15 87/55/15 88/56/15
f 56/53/15 59/54/15 88/55/15 85/56/15
f 55/53/15 49/54/15 89/55/15 90/56/15
f 53/53/15 55/54/15 90/55/15 91/56/15
f 51/53/15 53/54/15 91/55/15 92/56/15
f 49/53/15 51/54/15 92/55/15 89/56/15
f 93/53/16 94/54/16 95/55/16 96/56/16
f 97/53/16 93/54/16 96/55/16 98/56/16
f 99/53/16 97/54/16 98/55/16 100/56/16
f 94/53/16 99/54/16 100/55/16 95/56/16
f 101/53/16 102/54/16 103/55/16 104/56/16
f 105/53/16 101/54/16 104/55/16 106/56/16
f 107/53/16 105/54/16 106/55/16 108/56/16
f 102/53/16 107/54/16 108/55/16 103/56/16
f 109/53/16 110/54/16 111/55/16 112/56/16
f 110/53/16 113/54/16 114/55/16 111/56/16
f 113/53/16 115/54/16 116/55/16 114/56/16
f 115/53/16 109/54/16 112/55/16 116/56/16
f 117/53/16 118/54/16 119/55/16 120/56/16
f 118/53/16 121/54/16 122/55/16 119/56/16
f 121/53/16 123/54/16 124/55/16 122/56/16
f 123/53/16 117/54/16 120/55/16 124/56/16
f 120/53/11 89/54/11 92/55/11 124/56/11
f 124/53/12 92/54/12 91/55/12 122/56/12
f 122/53/13 91/54/13 90/55/13 119/56/13
f 89/53/14 120/54/14 119/55/14 90/56/14
f 112/53/11 85/54/11 88/55/11 116/56/11
f 116/53/12 88/54/12 87/55/12 114/56/12
f 114/53/13 87/54/13 86/55/13 111/56/13
f 111/53/14 86/54/14 85/55/14 112/56/14
f 108/53/14 84/54/14 82/55/14 103/56/14
f 106/53/13 83/54/13 84/55/13 108/56/13
f 104/53/12 81/54/12 83/55/12 106/56/12
f 103/53/11 82/54/11 81/55/11 104/56/11
f 78/53/14 95/54/14 100/55/14 80/56/14
f 98/53/13 79/54/13 80/55/13 100/56/13
f 96/53/12 77/54/12 79/55/12 98/56/12
f 95/53/11 78/54/11 77/55/11 96/56/11
