# Blender v2.76 (sub 0) OBJ File: ''
# www.blender.org
mtllib mesa.mtl
o pCube4
v -1.645576 0.958831 -0.780528
v 1.483386 0.958831 -0.780528
v 1.483386 1.063130 -0.780528
v -1.645576 1.063130 -0.780528
v 1.483386 1.063130 -0.801388
v -1.645576 1.063130 -0.801388
v 1.483386 0.958831 -0.801388
v -1.645576 0.958831 -0.801388
vt 0.230338 0.016880
vt 0.230338 0.003612
vt 0.230781 0.003612
vt 0.230781 0.016880
vt 0.237492 0.016703
vt 0.237492 0.003435
vt 0.237580 0.003435
vt 0.237580 0.016703
vt 0.280410 0.017043
vt 0.280410 0.003775
vt 0.280852 0.003775
vt 0.280852 0.017043
vt 0.244645 0.015818
vt 0.244645 0.002550
vt 0.244733 0.002550
vt 0.244733 0.015818
vt 0.091604 0.069519
vt 0.078335 0.069519
vt 0.078335 0.003177
vt 0.091604 0.003177
vt 0.131984 0.002890
vt 0.145252 0.002890
vt 0.145252 0.069232
vt 0.131984 0.069232
vn 0.000000 0.000000 1.000000
vn 0.000000 1.000000 0.000000
vn 0.000000 0.000000 -1.000000
vn 0.000000 -1.000000 0.000000
vn 1.000000 0.000000 0.000000
vn -1.000000 0.000000 0.000000
usemtl initialShadingGroup
s 1
f 1/1/1 2/2/1 3/3/1 4/4/1
f 4/5/2 3/6/2 5/7/2 6/8/2
f 6/9/3 5/10/3 7/11/3 8/12/3
f 8/13/4 7/14/4 2/15/4 1/16/4
f 2/17/5 7/18/5 5/19/5 3/20/5
f 8/21/6 1/22/6 4/23/6 6/24/6
o pCube1
v -1.749649 1.067083 0.876865
v 1.587911 1.067083 0.876865
v 1.587911 1.108803 0.876865
v -1.749649 1.108803 0.876865
v 1.587911 1.108803 -0.896213
v -1.749649 1.108803 -0.896213
v 1.587911 1.067083 -0.896213
v -1.749649 1.067083 -0.896213
vt 0.001893 0.001995
vt 0.331371 0.001995
vt 0.331371 0.006114
vt 0.001893 0.006114
vt 0.338727 0.331464
vt 0.338727 0.001992
vt 0.513759 0.001992
vt 0.513759 0.331464
vt 0.617722 0.664725
vt 0.617722 0.335253
vt 0.621840 0.335253
vt 0.621840 0.664725
vt 0.282420 0.335263
vt 0.611898 0.335263
vt 0.611898 0.510298
vt 0.282420 0.510298
vt 0.001892 0.668530
vt 0.331363 0.668530
vt 0.331363 0.676282
vt 0.001892 0.676282
vt 0.338728 0.668530
vt 0.668206 0.668530
vt 0.668206 0.676282
vt 0.338728 0.676282
vn 0.000000 0.000000 1.000000
vn 0.000000 1.000000 0.000000
vn 0.000000 0.000000 -1.000000
vn 0.000000 -1.000000 -0.000000
vn 1.000000 0.000000 0.000000
vn -1.000000 0.000000 0.000000
usemtl initialShadingGroup
s 1
f 9/25/7 10/26/7 11/27/7 12/28/7
f 12/29/8 11/30/8 13/31/8 14/32/8
f 14/33/9 13/34/9 15/35/9 16/36/9
f 16/37/10 15/38/10 10/39/10 9/40/10
f 10/41/11 15/42/11 13/43/11 11/44/11
f 16/45/12 9/46/12 12/47/12 14/48/12
o pCube3
v -1.627087 0.961045 0.775959
v 1.501875 0.961045 0.775959
v 1.501875 1.065344 0.775959
v -1.627087 1.065344 0.775959
v 1.501875 1.065344 0.755100
v -1.627087 1.065344 0.755100
v 1.501875 0.961045 0.755100
v -1.627087 0.961045 0.755100
vt 0.251798 0.016880
vt 0.251798 0.003612
vt 0.252240 0.003612
vt 0.252240 0.016880
vt 0.258951 0.016703
vt 0.258951 0.003435
vt 0.287563 0.017043
vt 0.287563 0.003775
vt 0.288005 0.003775
vt 0.288005 0.017043
vt 0.266104 0.015818
vt 0.266104 0.002550
vt 0.266192 0.002550
vt 0.266192 0.015818
vt 0.109487 0.069519
vt 0.096218 0.069519
vt 0.096218 0.003177
vt 0.109486 0.003177
vt 0.149866 0.002890
vt 0.163135 0.002890
vt 0.163135 0.069232
vt 0.149866 0.069232
vn 0.000000 0.000000 1.000000
vn 0.000000 1.000000 0.000000
vn 0.000000 0.000000 -1.000000
vn 0.000000 -1.000000 0.000000
vn 1.000000 0.000000 0.000000
vn -1.000000 0.000000 0.000000
usemtl initialShadingGroup
s 1
f 17/49/13 18/50/13 19/51/13 20/52/13
f 20/53/14 19/54/14 21/54/14 22/53/14
f 22/55/15 21/56/15 23/57/15 24/58/15
f 24/59/16 23/60/16 18/61/16 17/62/16
f 18/63/17 23/64/17 21/65/17 19/66/17
f 24/67/18 17/68/18 20/69/18 22/70/18
o pCube2
v 1.376717 -0.081942 0.755100
v 1.481015 -0.081942 0.755100
v 1.481015 0.961045 0.755100
v 1.376717 0.961045 0.755100
v 1.481015 0.961045 0.650801
v 1.376717 0.961045 0.650801
v 1.481015 -0.081942 0.650801
v 1.376717 -0.081942 0.650801
vt 0.001603 0.003455
vt 0.051087 0.003455
vt 0.051087 0.498293
vt 0.001603 0.498293
vt 0.535460 0.551515
vt 0.535460 0.502032
vt 0.584943 0.502032
vt 0.584943 0.551515
vt 0.475859 0.498051
vt 0.426375 0.498051
vt 0.426375 0.003216
vt 0.475859 0.003216
vt 0.213163 0.552338
vt 0.213163 0.502854
vt 0.262647 0.502854
vt 0.262647 0.552338
vt 0.480918 0.003386
vt 0.530401 0.003386
vt 0.530401 0.498221
vt 0.480918 0.498221
vt 0.054493 0.002078
vt 0.103977 0.002078
vt 0.103977 0.496916
vt 0.054493 0.496916
vn 0.000000 -0.000000 1.000000
vn 0.000000 1.000000 0.000000
vn 0.000000 0.000000 -1.000000
vn 0.000000 -1.000000 0.000000
vn 1.000000 0.000000 0.000000
vn -1.000000 0.000000 0.000000
usemtl initialShadingGroup
s 1
f 25/71/19 26/72/19 27/73/19 28/74/19
f 28/75/20 27/76/20 29/77/20 30/78/20
f 30/79/21 29/80/21 31/81/21 32/82/21
f 32/83/22 31/84/22 26/85/22 25/86/22
f 26/87/23 31/88/23 29/89/23 27/90/23
f 32/91/24 25/92/24 28/93/24 30/94/24
o pCube6
v -1.647946 0.961045 0.775959
v -1.627087 0.961045 0.775959
v -1.627087 1.065344 0.775959
v -1.647946 1.065344 0.775959
v -1.627087 1.065344 -0.788522
v -1.647946 1.065344 -0.788522
v -1.627087 0.961045 -0.788522
v -1.647946 0.961045 -0.788522
vt 0.167749 0.002872
vt 0.181018 0.002872
vt 0.181018 0.069214
vt 0.167749 0.069214
vt 0.038993 0.002877
vt 0.052262 0.002877
vt 0.052262 0.998009
vt 0.038993 0.998009
vt 0.216782 0.070403
vt 0.203514 0.070403
vt 0.203515 0.004063
vt 0.216783 0.004063
vt 0.058664 0.001992
vt 0.071933 0.001992
vt 0.071933 0.997123
vt 0.058664 0.997123
vt 0.720326 0.016158
vt 0.720326 0.002890
vt 0.721210 0.002890
vt 0.721210 0.016158
vt 0.273257 0.015331
vt 0.273257 0.002063
vt 0.274141 0.002063
vt 0.274141 0.015331
vn 0.000000 0.000000 1.000000
vn 0.000000 1.000000 0.000000
vn 0.000000 0.000000 -1.000000
vn 0.000000 -1.000000 -0.000000
vn 1.000000 0.000000 0.000000
vn -1.000000 0.000000 0.000000
usemtl initialShadingGroup
s 1
f 33/95/25 34/96/25 35/97/25 36/98/25
f 36/99/26 35/100/26 37/101/26 38/102/26
f 38/103/27 37/104/27 39/105/27 40/106/27
f 40/107/28 39/108/28 34/109/28 33/110/28
f 34/111/29 39/112/29 37/113/29 35/114/29
f 40/115/30 33/116/30 36/117/30 38/118/30
o pCube5
v 1.481015 0.961045 0.755100
v 1.501875 0.961045 0.755100
v 1.501875 1.065344 0.755100
v 1.481015 1.065344 0.755100
v 1.501875 1.065344 -0.809381
v 1.481015 1.065344 -0.809381
v 1.501875 0.961045 -0.809381
v 1.481015 0.961045 -0.809381
vt 0.114101 0.002872
vt 0.127369 0.002872
vt 0.127369 0.069214
vt 0.114101 0.069214
vt 0.001440 0.002877
vt 0.014708 0.002877
vt 0.014708 0.998009
vt 0.001440 0.998009
vt 0.198900 0.070403
vt 0.185632 0.070403
vt 0.185632 0.004063
vt 0.198900 0.004063
vt 0.019322 0.001992
vt 0.032591 0.001992
vt 0.032591 0.997123
vt 0.019322 0.997123
vt 0.714961 0.016158
vt 0.714961 0.002890
vt 0.715845 0.002890
vt 0.715845 0.016158
vt 0.223185 0.015331
vt 0.223185 0.002063
vt 0.224070 0.002063
vt 0.224070 0.015331
vn 0.000000 0.000000 1.000000
vn 0.000000 1.000000 0.000000
vn 0.000000 0.000000 -1.000000
vn 0.000000 -1.000000 -0.000000
vn 1.000000 0.000000 0.000000
vn -1.000000 0.000000 0.000000
usemtl initialShadingGroup
s 1
f 41/119/31 42/120/31 43/121/31 44/122/31
f 44/123/32 43/124/32 45/125/32 46/126/32
f 46/127/33 45/128/33 47/129/33 48/130/33
f 48/131/34 47/132/34 42/133/34 41/134/34
f 42/135/35 47/136/35 45/137/35 43/138/35
f 48/139/36 41/140/36 44/141/36 46/142/36
o pCube8
v -1.627087 -0.081942 0.755100
v -1.522788 -0.081942 0.755100
v -1.522788 0.961045 0.755100
v -1.627087 0.961045 0.755100
v -1.522788 0.961045 0.650801
v -1.627087 0.961045 0.650801
v -1.522788 -0.081942 0.650801
v -1.627087 -0.081942 0.650801
vt 0.213163 0.003314
vt 0.262647 0.003314
vt 0.262647 0.498152
vt 0.213163 0.498152
vt 0.001603 0.552061
vt 0.001603 0.502577
vt 0.051086 0.502577
vt 0.051086 0.552061
vt 0.694027 0.496827
vt 0.644544 0.496827
vt 0.644544 0.001992
vt 0.694027 0.001992
vt 0.479265 0.552547
vt 0.479265 0.503063
vt 0.528748 0.503063
vt 0.528748 0.552547
vt 0.699086 0.002377
vt 0.748570 0.002377
vt 0.748570 0.497212
vt 0.699086 0.497212
vt 0.266053 0.002377
vt 0.315537 0.002377
vt 0.315537 0.497214
vt 0.266053 0.497214
vn 0.000000 -0.000000 1.000000
vn 0.000000 1.000000 0.000000
vn 0.000000 0.000000 -1.000000
vn 0.000000 -1.000000 0.000000
vn 1.000000 0.000000 0.000000
vn -1.000000 0.000000 0.000000
usemtl initialShadingGroup
s 1
f 49/143/37 50/144/37 51/145/37 52/146/37
f 52/147/38 51/148/38 53/149/38 54/150/38
f 54/151/39 53/152/39 55/153/39 56/154/39
f 56/155/40 55/156/40 50/157/40 49/158/40
f 50/159/41 55/160/41 53/161/41 51/162/41
f 56/163/42 49/164/42 52/165/42 54/166/42
o pCube7
v 1.379088 -0.084156 -0.676230
v 1.483386 -0.084156 -0.676230
v 1.483386 0.958831 -0.676230
v 1.379088 0.958831 -0.676230
v 1.483386 0.958831 -0.780528
v 1.379088 0.958831 -0.780528
v 1.483386 -0.084156 -0.780529
v 1.379088 -0.084156 -0.780529
vt 0.107383 0.002619
vt 0.156867 0.002619
vt 0.156867 0.497456
vt 0.107383 0.497456
vt 0.158620 0.552930
vt 0.158620 0.503447
vt 0.208104 0.503447
vt 0.208104 0.552930
vt 0.584943 0.498000
vt 0.535460 0.498000
vt 0.535460 0.003165
vt 0.584943 0.003165
vt 0.317290 0.552449
vt 0.317290 0.502965
vt 0.366774 0.502965
vt 0.366774 0.552449
vt 0.590002 0.002377
vt 0.639485 0.002377
vt 0.639485 0.497212
vt 0.590002 0.497212
vt 0.160273 0.002940
vt 0.209757 0.002940
vt 0.209757 0.497778
vt 0.160273 0.497778
vn 0.000000 -0.000000 1.000000
vn 0.000000 1.000000 0.000000
vn 0.000000 0.000000 -1.000000
vn 0.000000 -1.000000 0.000000
vn 1.000000 0.000000 0.000000
vn -1.000000 0.000000 0.000000
usemtl initialShadingGroup
s 1
f 57/167/43 58/168/43 59/169/43 60/170/43
f 60/171/44 59/172/44 61/173/44 62/174/44
f 62/175/45 61/176/45 63/177/45 64/178/45
f 64/179/46 63/180/46 58/181/46 57/182/46
f 58/183/47 63/184/47 61/185/47 59/186/47
f 64/187/48 57/188/48 60/189/48 62/190/48
o pCube9
v -1.627087 0.022357 -0.684223
v -1.522788 0.022357 -0.684223
v -1.522788 1.065344 -0.684223
v -1.627087 1.065344 -0.684223
v -1.522788 1.065344 -0.788522
v -1.627087 1.065344 -0.788522
v -1.522788 0.022357 -0.788522
v -1.627087 0.022357 -0.788522
vt 0.318943 0.003090
vt 0.368427 0.003090
vt 0.368427 0.497928
vt 0.318943 0.497928
vt 0.105730 0.552403
vt 0.105730 0.502920
vt 0.155214 0.502920
vt 0.155214 0.552403
vt 0.828419 0.501191
vt 0.778935 0.501191
vt 0.778935 0.006356
vt 0.828419 0.006356
vt 0.370180 0.551444
vt 0.370180 0.501960
vt 0.419664 0.501960
vt 0.419664 0.551444
vt 0.424723 0.503173
vt 0.474206 0.503173
vt 0.474206 0.998008
vt 0.424723 0.998008
vt 0.371833 0.002377
vt 0.421317 0.002377
vt 0.421317 0.497214
vt 0.371833 0.497214
vn 0.000000 -0.000000 1.000000
vn 0.000000 1.000000 0.000000
vn 0.000000 0.000000 -1.000000
vn 0.000000 -1.000000 0.000000
vn 1.000000 0.000000 0.000000
vn -1.000000 0.000000 0.000000
usemtl initialShadingGroup
s 1
f 65/191/49 66/192/49 67/193/49 68/194/49
f 68/195/50 67/196/50 69/197/50 70/198/50
f 70/199/51 69/200/51 71/201/51 72/202/51
f 72/203/52 71/204/52 66/205/52 65/206/52
f 66/207/53 71/208/53 69/209/53 67/210/53
f 72/211/54 65/212/54 68/213/54 70/214/54
