# Blender v2.76 (sub 0) OBJ File: ''
# www.blender.org
mtllib tableBasseCarree.mtl
o Couche:OBJECT006
v -0.868137 0.925073 0.643644
v -0.824999 0.925073 0.600506
v -0.868137 0.925073 0.600506
v -0.824999 0.925073 0.643644
v -0.868137 0.040748 0.600506
v -0.824999 0.040748 0.643644
v -0.868137 0.040748 0.643644
v -0.824999 0.040748 0.600506
vn 0.000000 1.000000 0.000000
vn 0.000000 -1.000000 0.000000
vn 1.000000 0.000000 0.000000
vn -1.000000 0.000000 0.000000
vn 0.000000 0.000000 1.000000
vn 0.000000 0.000000 -1.000000
usemtl Material.001
s 1
f 1//1 2//1 3//1
f 1//1 4//1 2//1
f 5//2 6//2 7//2
f 5//2 8//2 6//2
f 2//3 6//3 8//3
f 2//3 4//3 6//3
f 5//4 1//4 3//4
f 5//4 7//4 1//4
f 4//5 7//5 6//5
f 4//5 1//5 7//5
f 8//6 3//6 2//6
f 8//6 5//6 3//6
o Couche:OBJECT008
v -0.835784 0.461342 0.603882
v 0.552833 0.461342 -0.766757
v 0.545402 0.461342 -0.774166
v -0.828353 0.461342 0.611291
v 0.545402 0.396635 -0.774166
v -0.828353 0.396635 0.611291
v -0.835784 0.396635 0.603882
v 0.552833 0.396635 -0.766757
vn -0.000000 1.000000 -0.000000
vn 0.000000 -1.000000 0.000000
vn 0.706300 0.000000 0.707900
vn -0.706300 0.000000 -0.707900
vn -0.706100 0.000000 0.708100
vn 0.706100 0.000000 -0.708100
vn 0.706400 -0.000000 -0.707800
usemtl Material.001
s 1
f 9//7 10//7 11//7
f 9//7 12//7 10//7
f 13//8 14//8 15//8
f 13//8 16//8 14//8
f 10//9 14//9 16//9
f 10//9 12//9 14//9
f 13//10 9//10 11//10
f 13//10 15//10 9//10
f 12//11 15//11 14//11
f 12//11 9//11 15//11
f 16//12 11//12 10//12
f 16//12 13//13 11//12
o Couche:OBJECT001
v 0.587763 0.978995 -0.812256
v 0.523057 0.978995 0.654429
v 0.587763 0.978995 0.654429
v 0.523057 0.978995 -0.812256
v 0.587763 0.914288 0.654429
v 0.523057 0.914289 -0.812256
v 0.587763 0.914289 -0.812256
v 0.523057 0.914288 0.654429
vn 0.000000 1.000000 0.000000
vn 0.000000 -1.000000 -0.000000
vn 1.000000 0.000000 0.000000
vn 0.000000 0.000000 1.000000
vn 0.000000 0.000000 -1.000000
vn -1.000000 0.000000 0.000000
usemtl Material.001
s 1
f 17//14 18//14 19//14
f 17//14 20//14 18//14
f 21//15 22//15 23//15
f 21//15 24//15 22//15
f 21//16 17//16 19//16
f 21//16 23//16 17//16
f 24//17 19//17 18//17
f 24//17 21//17 19//17
f 23//18 20//18 17//18
f 23//18 22//18 20//18
f 22//19 18//19 20//19
f 22//19 24//19 18//19
o Couche:OBJECT002
v 0.523057 0.978995 0.654429
v -0.814215 0.978995 0.589722
v -0.814215 0.978995 0.654429
v 0.523057 0.978995 0.589722
v 0.523057 0.914288 0.654429
v -0.814215 0.914288 0.589722
v 0.523057 0.914288 0.589722
v -0.814215 0.914288 0.654429
vn 0.000000 1.000000 0.000000
vn 0.000000 -1.000000 0.000000
vn 0.000000 0.000000 1.000000
vn 1.000000 0.000000 0.000000
vn -1.000000 0.000000 0.000000
vn 0.000000 0.000000 -1.000000
usemtl Material.001
s 1
f 25//20 26//20 27//20
f 25//20 28//20 26//20
f 29//21 30//21 31//21
f 29//21 32//21 30//21
f 32//22 25//22 27//22
f 32//22 29//22 25//22
f 29//23 28//23 25//23
f 29//23 31//23 28//23
f 30//24 27//24 26//24
f 30//24 32//24 27//24
f 31//25 26//25 28//25
f 31//25 30//25 26//25
o Couche:OBJECT005
v 0.533841 0.914289 -0.758334
v 0.576979 0.914289 -0.801472
v 0.533841 0.914289 -0.801472
v 0.576979 0.914289 -0.758334
v 0.533841 0.029964 -0.801472
v 0.576979 0.029964 -0.758334
v 0.533841 0.029964 -0.758334
v 0.576979 0.029964 -0.801472
vn 0.000000 1.000000 0.000000
vn 0.000000 -1.000000 0.000000
vn 1.000000 0.000000 0.000000
vn -1.000000 -0.000000 0.000000
vn 0.000000 -0.000000 1.000000
vn 0.000000 0.000000 -1.000000
usemtl Material.001
s 1
f 33//26 34//26 35//26
f 33//26 36//26 34//26
f 37//27 38//27 39//27
f 37//27 40//27 38//27
f 34//28 38//28 40//28
f 34//28 36//28 38//28
f 37//29 33//29 35//29
f 37//29 39//29 33//29
f 36//30 39//30 38//30
f 36//30 33//30 39//30
f 40//31 35//31 34//31
f 40//31 37//31 35//31
o Couche:OBJECT000
v 0.523057 0.978995 -0.812256
v -0.814215 0.978995 -0.747550
v 0.523057 0.978995 -0.747550
v -0.814215 0.978995 -0.812256
v 0.523057 0.914289 -0.812256
v -0.814215 0.914289 -0.747550
v -0.814215 0.914289 -0.812256
v 0.523057 0.914289 -0.747550
vn 0.000000 1.000000 0.000000
vn 0.000000 -1.000000 0.000000
vn 0.000000 0.000000 -1.000000
vn 1.000000 0.000000 0.000000
vn -1.000000 0.000000 0.000000
vn 0.000000 0.000000 1.000000
usemtl Material.001
s 1
f 41//32 42//32 43//32
f 41//32 44//32 42//32
f 45//33 46//33 47//33
f 45//33 48//33 46//33
f 45//34 44//34 41//34
f 45//34 47//34 44//34
f 48//35 41//35 43//35
f 48//35 45//35 41//35
f 47//36 42//36 44//36
f 47//36 46//36 42//36
f 46//37 43//37 42//37
f 46//37 48//37 43//37
o Couche:OBJECT003
v -0.878922 0.978995 0.654429
v -0.814215 0.978995 -0.812256
v -0.878922 0.978995 -0.812256
v -0.814215 0.978995 0.654429
v -0.878922 0.914289 -0.812256
v -0.814215 0.914288 0.654429
v -0.878922 0.914288 0.654429
v -0.814215 0.914289 -0.812256
vn 0.000000 1.000000 0.000000
vn 0.000000 -1.000000 -0.000000
vn -1.000000 0.000000 0.000000
vn 0.000000 0.000000 1.000000
vn 0.000000 0.000000 -1.000000
vn 1.000000 0.000000 0.000000
usemtl Material.001
s 1
f 49//38 50//38 51//38
f 49//38 52//38 50//38
f 53//39 54//39 55//39
f 53//39 56//39 54//39
f 53//40 49//40 51//40
f 53//40 55//40 49//40
f 55//41 52//41 49//41
f 55//41 54//41 52//41
f 56//42 51//42 50//42
f 56//42 53//42 51//42
f 54//43 50//43 52//43
f 54//43 56//43 50//43
o Couche:OBJECT007
v 0.533841 0.914288 0.643644
v 0.576979 0.914288 0.600506
v 0.533841 0.914288 0.600506
v 0.576979 0.914288 0.643644
v 0.533841 0.029964 0.600506
v 0.576979 0.029964 0.643644
v 0.533841 0.029964 0.643644
v 0.576979 0.029964 0.600506
vn 0.000000 1.000000 0.000000
vn 0.000000 -1.000000 0.000000
vn 1.000000 0.000000 0.000000
vn -1.000000 -0.000000 0.000000
vn 0.000000 -0.000000 1.000000
vn 0.000000 0.000000 -1.000000
usemtl Material.001
s 1
f 57//44 58//44 59//44
f 57//44 60//44 58//44
f 61//45 62//45 63//45
f 61//45 64//45 62//45
f 58//46 62//46 64//46
f 58//46 60//46 62//46
f 61//47 57//47 59//47
f 61//47 63//47 57//47
f 60//48 63//48 62//48
f 60//48 57//48 63//48
f 64//49 59//49 58//49
f 64//49 61//49 59//49
o Couche:OBJECT010
v 0.350506 0.461342 0.449524
v -0.663233 0.461342 -0.564214
v -0.663233 0.461342 0.449524
v 0.350506 0.461342 -0.564214
v 0.350506 0.396635 -0.564214
v -0.663233 0.396635 0.449524
v -0.663233 0.396635 -0.564214
v 0.350506 0.396635 0.449524
vn 0.000000 1.000000 0.000000
vn 0.000000 -1.000000 -0.000000
vn 1.000000 0.000000 0.000000
vn -1.000000 0.000000 0.000000
vn 0.000000 0.000000 1.000000
vn 0.000000 0.000000 -1.000000
usemtl Material.001
s 1
f 65//50 66//50 67//50
f 65//50 68//50 66//50
f 69//51 70//51 71//51
f 69//51 72//51 70//51
f 72//52 68//52 65//52
f 72//52 69//52 68//52
f 71//53 67//53 66//53
f 71//53 70//53 67//53
f 70//54 65//54 67//54
f 70//54 72//54 65//54
f 69//55 66//55 68//55
f 69//55 71//55 66//55
o Couche:OBJECT004
v -0.868137 0.925073 -0.758334
v -0.824999 0.925073 -0.801472
v -0.868137 0.925073 -0.801472
v -0.824999 0.925073 -0.758334
v -0.868137 0.040748 -0.801472
v -0.824999 0.040748 -0.758334
v -0.868137 0.040748 -0.758334
v -0.824999 0.040748 -0.801472
vn 0.000000 1.000000 0.000000
vn 0.000000 -1.000000 0.000000
vn 1.000000 0.000000 0.000000
vn -1.000000 0.000000 0.000000
vn 0.000000 0.000000 1.000000
vn 0.000000 0.000000 -1.000000
usemtl Material.001
s 1
f 73//56 74//56 75//56
f 73//56 76//56 74//56
f 77//57 78//57 79//57
f 77//57 80//57 78//57
f 74//58 78//58 80//58
f 74//58 76//58 78//58
f 77//59 73//59 75//59
f 77//59 79//59 73//59
f 76//60 79//60 78//60
f 76//60 73//60 79//60
f 80//61 75//61 74//61
f 80//61 77//61 75//61
o sweethome3d_window_pane
v -0.882416 0.994169 0.649921
v 0.584269 0.994169 -0.816764
v -0.882416 0.994169 -0.816764
v 0.584269 0.994169 0.649921
v -0.882416 0.984927 -0.816764
v 0.584269 0.984927 0.649921
v -0.882416 0.984927 0.649921
v 0.584269 0.984927 -0.816764
vn 0.000000 1.000000 0.000000
vn 0.000000 -1.000000 -0.000000
vn -1.000000 0.000000 0.000000
vn 0.000000 0.000000 1.000000
vn 0.000000 0.000000 -1.000000
vn 1.000000 0.000000 0.000000
usemtl glasstransparent
s 1
f 81//62 82//62 83//62
f 81//62 84//62 82//62
f 85//63 86//63 87//63
f 85//63 88//63 86//63
f 85//64 81//64 83//64
f 85//64 87//64 81//64
f 87//65 84//65 81//65
f 87//65 86//65 84//65
f 88//66 83//66 82//66
f 88//66 85//66 83//66
f 86//67 82//67 84//67
f 86//67 88//67 82//67
o Couche:OBJECT009
v 0.542264 0.461342 0.641067
v -0.828375 0.461342 -0.747550
v -0.835784 0.461342 -0.740119
v 0.549673 0.461342 0.633636
v -0.835784 0.396635 -0.740119
v 0.549673 0.396635 0.633636
v 0.542264 0.396635 0.641067
v -0.828375 0.396635 -0.747550
vn 0.000000 1.000000 -0.000000
vn -0.000000 -1.000000 -0.000000
vn 0.707900 0.000000 -0.706300
vn -0.707900 0.000000 0.706300
vn 0.707900 0.000000 0.706300
vn 0.708100 0.000000 0.706100
vn 0.707800 -0.000000 0.706400
vn -0.708100 0.000000 -0.706100
usemtl Material.001
s 1
f 89//68 90//68 91//68
f 89//68 92//68 90//68
f 93//69 94//69 95//69
f 93//69 96//69 94//69
f 90//70 94//70 96//70
f 90//70 92//70 94//70
f 93//71 89//71 91//71
f 93//71 95//71 89//71
f 92//72 95//73 94//74
f 92//72 89//74 95//73
f 96//75 91//75 90//75
f 96//75 93//75 91//75
