# Blender v2.76 (sub 0) OBJ File: ''
# www.blender.org
mtllib tableBasseCarree.mtl
o Couche:OBJECT010
v 0.497975 0.465625 0.494323
v -0.515764 0.465625 -0.519415
v -0.515764 0.465625 0.494323
v 0.497975 0.465625 -0.519415
v 0.497975 0.400918 -0.519415
v -0.515764 0.400918 0.494323
v -0.515764 0.400918 -0.519415
v 0.497975 0.400918 0.494323
vn 0.000000 1.000000 0.000000
vn 0.000000 -1.000000 -0.000000
vn 1.000000 0.000000 0.000000
vn -1.000000 0.000000 0.000000
vn 0.000000 0.000000 1.000000
vn 0.000000 0.000000 -1.000000
usemtl Material.001
s 1
f 1//1 2//1 3//1
f 1//1 4//1 2//1
f 5//2 6//2 7//2
f 5//2 8//2 6//2
f 8//3 4//3 1//3
f 8//3 5//3 4//3
f 7//4 3//4 2//4
f 7//4 6//4 3//4
f 6//5 1//5 3//5
f 6//5 8//5 1//5
f 5//6 2//6 4//6
f 5//6 7//6 2//6
o Couche:OBJECT001
v 0.735232 0.983278 -0.767457
v 0.670526 0.983278 0.699228
v 0.735232 0.983278 0.699228
v 0.670526 0.983278 -0.767457
v 0.735232 0.918571 0.699228
v 0.670526 0.918572 -0.767457
v 0.735232 0.918572 -0.767457
v 0.670526 0.918571 0.699228
vn 0.000000 1.000000 0.000000
vn 0.000000 -1.000000 -0.000000
vn 1.000000 0.000000 0.000000
vn 0.000000 0.000000 1.000000
vn 0.000000 0.000000 -1.000000
vn -1.000000 0.000000 0.000000
usemtl Material.001
s 1
f 9//7 10//7 11//7
f 9//7 12//7 10//7
f 13//8 14//8 15//8
f 13//8 16//8 14//8
f 13//9 9//9 11//9
f 13//9 15//9 9//9
f 16//10 11//10 10//10
f 16//10 13//10 11//10
f 15//11 12//11 9//11
f 15//11 14//11 12//11
f 14//12 10//12 12//12
f 14//12 16//12 10//12
o sweethome3d_window_pane
v -0.734947 0.998452 0.694720
v 0.731738 0.998452 -0.771965
v -0.734947 0.998452 -0.771965
v 0.731738 0.998452 0.694720
v -0.734947 0.989210 -0.771965
v 0.731738 0.989210 0.694720
v -0.734947 0.989210 0.694720
v 0.731738 0.989210 -0.771965
vn 0.000000 1.000000 0.000000
vn 0.000000 -1.000000 0.000000
vn -1.000000 0.000000 0.000000
vn 0.000000 0.000000 1.000000
vn 0.000000 0.000000 -1.000000
vn 1.000000 0.000000 0.000000
usemtl glasstransparent
s 1
f 17//13 18//13 19//13
f 17//13 20//13 18//13
f 21//14 22//14 23//14
f 21//14 24//14 22//14
f 21//15 17//15 19//15
f 21//15 23//15 17//15
f 23//16 20//16 17//16
f 23//16 22//16 20//16
f 24//17 19//17 18//17
f 24//17 21//17 19//17
f 22//18 18//18 20//18
f 22//18 24//18 18//18
o Couche:OBJECT000
v 0.670526 0.983278 -0.767457
v -0.666746 0.983278 -0.702751
v 0.670526 0.983278 -0.702751
v -0.666746 0.983278 -0.767457
v 0.670526 0.918572 -0.767457
v -0.666746 0.918572 -0.702751
v -0.666746 0.918572 -0.767457
v 0.670526 0.918572 -0.702751
vn 0.000000 1.000000 0.000000
vn 0.000000 -1.000000 0.000000
vn 0.000000 0.000000 -1.000000
vn 1.000000 0.000000 0.000000
vn -1.000000 0.000000 0.000000
vn 0.000000 0.000000 1.000000
usemtl Material.001
s 1
f 25//19 26//19 27//19
f 25//19 28//19 26//19
f 29//20 30//20 31//20
f 29//20 32//20 30//20
f 29//21 28//21 25//21
f 29//21 31//21 28//21
f 32//22 25//22 27//22
f 32//22 29//22 25//22
f 31//23 26//23 28//23
f 31//23 30//23 26//23
f 30//24 27//24 26//24
f 30//24 32//24 27//24
o Couche:OBJECT002
v 0.670526 0.983278 0.699228
v -0.666746 0.983278 0.634521
v -0.666746 0.983278 0.699228
v 0.670526 0.983278 0.634521
v 0.670526 0.918571 0.699228
v -0.666746 0.918571 0.634521
v 0.670526 0.918571 0.634521
v -0.666746 0.918571 0.699228
vn 0.000000 1.000000 0.000000
vn 0.000000 -1.000000 0.000000
vn 0.000000 0.000000 1.000000
vn 1.000000 0.000000 0.000000
vn -1.000000 0.000000 0.000000
vn 0.000000 0.000000 -1.000000
usemtl Material.001
s 1
f 33//25 34//25 35//25
f 33//25 36//25 34//25
f 37//26 38//26 39//26
f 37//26 40//26 38//26
f 40//27 33//27 35//27
f 40//27 37//27 33//27
f 37//28 36//28 33//28
f 37//28 39//28 36//28
f 38//29 35//29 34//29
f 38//29 40//29 35//29
f 39//30 34//30 36//30
f 39//30 38//30 34//30
o Couche:OBJECT006
v -0.720668 0.929356 0.688443
v -0.677530 0.929356 0.645305
v -0.720668 0.929356 0.645305
v -0.677530 0.929356 0.688443
v -0.720668 0.045031 0.645305
v -0.677530 0.045031 0.688443
v -0.720668 0.045031 0.688443
v -0.677530 0.045031 0.645305
vn 0.000000 1.000000 0.000000
vn 0.000000 -1.000000 -0.000000
vn 1.000000 0.000000 0.000000
vn -1.000000 0.000000 0.000000
vn 0.000000 0.000000 1.000000
vn 0.000000 0.000000 -1.000000
usemtl Material.001
s 1
f 41//31 42//31 43//31
f 41//31 44//31 42//31
f 45//32 46//32 47//32
f 45//32 48//32 46//32
f 42//33 46//33 48//33
f 42//33 44//33 46//33
f 45//34 41//34 43//34
f 45//34 47//34 41//34
f 44//35 47//35 46//35
f 44//35 41//35 47//35
f 48//36 43//36 42//36
f 48//36 45//36 43//36
o Couche:OBJECT007
v 0.681310 0.918571 0.688443
v 0.724448 0.918571 0.645305
v 0.681310 0.918571 0.645305
v 0.724448 0.918571 0.688443
v 0.681310 0.034247 0.645305
v 0.724448 0.034247 0.688443
v 0.681310 0.034247 0.688443
v 0.724448 0.034247 0.645305
vn 0.000000 1.000000 0.000000
vn 0.000000 -1.000000 -0.000000
vn 1.000000 0.000000 0.000000
vn -1.000000 0.000000 0.000000
vn 0.000000 0.000000 1.000000
vn 0.000000 0.000000 -1.000000
usemtl Material.001
s 1
f 49//37 50//37 51//37
f 49//37 52//37 50//37
f 53//38 54//38 55//38
f 53//38 56//38 54//38
f 50//39 54//39 56//39
f 50//39 52//39 54//39
f 53//40 49//40 51//40
f 53//40 55//40 49//40
f 52//41 55//41 54//41
f 52//41 49//41 55//41
f 56//42 51//42 50//42
f 56//42 53//42 51//42
o Couche:OBJECT003
v -0.731453 0.983278 0.699228
v -0.666746 0.983278 -0.767457
v -0.731453 0.983278 -0.767457
v -0.666746 0.983278 0.699228
v -0.731453 0.918572 -0.767457
v -0.666746 0.918571 0.699228
v -0.731453 0.918571 0.699228
v -0.666746 0.918572 -0.767457
vn 0.000000 1.000000 0.000000
vn 0.000000 -1.000000 -0.000000
vn -1.000000 0.000000 0.000000
vn 0.000000 0.000000 1.000000
vn 0.000000 0.000000 -1.000000
vn 1.000000 0.000000 0.000000
usemtl Material.001
s 1
f 57//43 58//43 59//43
f 57//43 60//43 58//43
f 61//44 62//44 63//44
f 61//44 64//44 62//44
f 61//45 57//45 59//45
f 61//45 63//45 57//45
f 63//46 60//46 57//46
f 63//46 62//46 60//46
f 64//47 59//47 58//47
f 64//47 61//47 59//47
f 62//48 58//48 60//48
f 62//48 64//48 58//48
o Couche:OBJECT009
v 0.689733 0.465625 0.685866
v -0.680906 0.465625 -0.702751
v -0.688315 0.465625 -0.695320
v 0.697142 0.465625 0.678435
v -0.688315 0.400918 -0.695320
v 0.697142 0.400918 0.678435
v 0.689733 0.400918 0.685866
v -0.680906 0.400918 -0.702751
vn 0.000000 1.000000 0.000000
vn -0.000000 -1.000000 -0.000000
vn 0.707900 0.000000 -0.706300
vn -0.707900 0.000000 0.706300
vn 0.708200 0.000000 0.706100
vn 0.707800 -0.000000 0.706400
vn -0.708200 0.000000 -0.706100
usemtl Material.001
s 1
f 65//49 66//49 67//49
f 65//49 68//49 66//49
f 69//50 70//50 71//50
f 69//50 72//50 70//50
f 66//51 70//51 72//51
f 66//51 68//51 70//51
f 69//52 65//52 67//52
f 69//52 71//52 65//52
f 68//53 71//53 70//54
f 68//53 65//54 71//53
f 72//55 67//55 66//55
f 72//55 69//55 67//55
o Couche:OBJECT005
v 0.681310 0.918572 -0.713535
v 0.724448 0.918572 -0.756673
v 0.681310 0.918572 -0.756673
v 0.724448 0.918572 -0.713535
v 0.681310 0.034247 -0.756673
v 0.724448 0.034247 -0.713535
v 0.681310 0.034247 -0.713535
v 0.724448 0.034247 -0.756673
vn 0.000000 1.000000 0.000000
vn 0.000000 -1.000000 0.000000
vn 1.000000 -0.000000 0.000000
vn -1.000000 0.000000 0.000000
vn 0.000000 -0.000000 1.000000
vn 0.000000 0.000000 -1.000000
usemtl Material.001
s 1
f 73//56 74//56 75//56
f 73//56 76//56 74//56
f 77//57 78//57 79//57
f 77//57 80//57 78//57
f 74//58 78//58 80//58
f 74//58 76//58 78//58
f 77//59 73//59 75//59
f 77//59 79//59 73//59
f 76//60 79//60 78//60
f 76//60 73//60 79//60
f 80//61 75//61 74//61
f 80//61 77//61 75//61
o Couche:OBJECT004
v -0.720668 0.929356 -0.713535
v -0.677530 0.929356 -0.756673
v -0.720668 0.929356 -0.756673
v -0.677530 0.929356 -0.713535
v -0.720668 0.045031 -0.756673
v -0.677530 0.045031 -0.713535
v -0.720668 0.045031 -0.713535
v -0.677530 0.045031 -0.756673
vn 0.000000 1.000000 0.000000
vn 0.000000 -1.000000 0.000000
vn 1.000000 -0.000000 0.000000
vn -1.000000 0.000000 0.000000
vn 0.000000 -0.000000 1.000000
vn 0.000000 0.000000 -1.000000
usemtl Material.001
s 1
f 81//62 82//62 83//62
f 81//62 84//62 82//62
f 85//63 86//63 87//63
f 85//63 88//63 86//63
f 82//64 86//64 88//64
f 82//64 84//64 86//64
f 85//65 81//65 83//65
f 85//65 87//65 81//65
f 84//66 87//66 86//66
f 84//66 81//66 87//66
f 88//67 83//67 82//67
f 88//67 85//67 83//67
o Couche:OBJECT008
v -0.688315 0.465625 0.648681
v 0.700302 0.465625 -0.721958
v 0.692871 0.465625 -0.729367
v -0.680884 0.465625 0.656090
v 0.692871 0.400918 -0.729367
v -0.680884 0.400918 0.656090
v -0.688315 0.400918 0.648681
v 0.700302 0.400918 -0.721958
vn -0.000000 1.000000 0.000000
vn 0.000000 -1.000000 0.000000
vn 0.706300 0.000000 0.707900
vn -0.706300 0.000000 -0.707900
vn -0.706100 0.000000 0.708200
vn 0.706100 0.000000 -0.708200
vn 0.706400 -0.000000 -0.707800
usemtl Material.001
s 1
f 89//68 90//68 91//68
f 89//68 92//68 90//68
f 93//69 94//69 95//69
f 93//69 96//69 94//69
f 90//70 94//70 96//70
f 90//70 92//70 94//70
f 93//71 89//71 91//71
f 93//71 95//71 89//71
f 92//72 95//72 94//72
f 92//72 89//72 95//72
f 96//73 91//73 90//73
f 96//73 93//74 91//73
